<?xml version="1.0" encoding="utf-8"?>
<!-- Generator: Adobe Illustrator 22.1.0, SVG Export Plug-In . SVG Version: 6.00 Build 0)  -->
<svg version="1.1" id="Слой_1" xmlns="http://www.w3.org/2000/svg" xmlns:xlink="http://www.w3.org/1999/xlink" x="0px" y="0px"
	 viewBox="0 0 437 115" style="enable-background:new 0 0 437 115;" xml:space="preserve">
<style type="text/css">
	.st0{fill:#F7C935;}
	.st1{enable-background:new    ;}
	.st2{fill:#FFFFFF;}
</style>
<g id="Слой_1_1_">
</g>
<g id="Слой_2_1_">
	<path class="st0" d="M46,49c-4,7-8,15-18,20c-7,6-11,13-16,31c3-32,4-39,4-46C4,36-1,23,1,12c16,13,30,12,75,17c27,3,63,13,124,22
		C107,45,51,33,46,49z"/>
	<g class="st1">
		<path class="st0" d="M60.8,107.2l-4.1-10.4H43.6l-4,10.4h-3.9l13-33h3.2l12.9,33H60.8z M55.5,93.3l-3.8-10.2
			c-0.5-1.3-1-2.9-1.5-4.7c-0.3,1.4-0.8,3-1.4,4.7l-3.9,10.2H55.5z"/>
		<path class="st0" d="M94.1,74.3v21.2c0,3.7-1.1,6.7-3.4,8.8c-2.3,2.1-5.4,3.2-9.3,3.2s-7-1.1-9.2-3.2c-2.2-2.2-3.2-5.1-3.2-8.9
			V74.3h3.8v21.4c0,2.7,0.7,4.8,2.2,6.3c1.5,1.5,3.7,2.2,6.6,2.2c2.8,0,4.9-0.7,6.4-2.2c1.5-1.5,2.2-3.6,2.2-6.3V74.3H94.1z"/>
		<path class="st0" d="M112.9,107.2h-3.8V77.7H98.7v-3.4h24.6v3.4h-10.4V107.2z"/>
		<path class="st0" d="M156.7,90.7c0,5.3-1.3,9.4-4,12.4c-2.7,3-6.4,4.5-11.1,4.5c-4.8,0-8.6-1.5-11.2-4.4c-2.6-3-3.9-7.1-3.9-12.5
			c0-5.3,1.3-9.5,4-12.4c2.6-2.9,6.4-4.4,11.2-4.4c4.7,0,8.4,1.5,11.1,4.5S156.7,85.4,156.7,90.7z M130.6,90.7
			c0,4.4,0.9,7.8,2.8,10.1c1.9,2.3,4.6,3.4,8.3,3.4c3.6,0,6.4-1.1,8.2-3.4c1.9-2.3,2.8-5.7,2.8-10.1c0-4.4-0.9-7.8-2.8-10.1
			c-1.8-2.3-4.6-3.4-8.2-3.4c-3.6,0-6.4,1.1-8.3,3.4C131.5,83,130.6,86.3,130.6,90.7z"/>
	</g>
	<g class="st1">
		<path class="st2" d="M175.9,74.3h9.3c4.4,0,7.5,0.7,9.5,2c1.9,1.3,2.9,3.4,2.9,6.2c0,1.9-0.5,3.6-1.6,4.8
			c-1.1,1.3-2.7,2.1-4.8,2.5V90c5,0.9,7.5,3.5,7.5,7.9c0,2.9-1,5.2-3,6.9c-2,1.6-4.8,2.5-8.3,2.5h-11.5V74.3z M179.7,88.4h6.3
			c2.7,0,4.6-0.4,5.8-1.3c1.2-0.8,1.8-2.3,1.8-4.3c0-1.8-0.7-3.2-2-4c-1.3-0.8-3.4-1.2-6.3-1.2h-5.6V88.4z M179.7,91.6v12.3h6.9
			c2.7,0,4.6-0.5,6-1.5c1.3-1,2-2.6,2-4.8c0-2-0.7-3.5-2.1-4.5s-3.5-1.4-6.3-1.4H179.7z"/>
		<path class="st2" d="M209.5,93.5v13.7h-3.8V74.3h9c4,0,7,0.8,8.9,2.3c1.9,1.5,2.9,3.9,2.9,7c0,4.3-2.2,7.3-6.6,8.8l8.9,14.8h-4.5
			l-8-13.7H209.5z M209.5,90.2h5.2c2.7,0,4.7-0.5,5.9-1.6c1.3-1.1,1.9-2.7,1.9-4.8c0-2.2-0.6-3.7-1.9-4.7s-3.3-1.4-6.2-1.4h-5V90.2z
			"/>
		<path class="st2" d="M254.8,107.2l-4.1-10.4h-13.2l-4,10.4h-3.9l13-33h3.2l12.9,33H254.8z M249.5,93.3l-3.8-10.2
			c-0.5-1.3-1-2.9-1.5-4.7c-0.3,1.4-0.8,3-1.4,4.7l-3.9,10.2H249.5z"/>
		<path class="st2" d="M283.1,107.2h-22.6v-3L278,77.8h-16.9v-3.4h21.5v3l-17.4,26.4h17.9V107.2z"/>
		<path class="st2" d="M309.4,107.2h-22.6v-3l17.4-26.4h-16.9v-3.4h21.5v3l-17.4,26.4h17.9V107.2z"/>
		<path class="st2" d="M334.1,107.2h-18.3V74.3h18.3v3.4h-14.5v10.6h13.6v3.4h-13.6v12.1h14.5V107.2z"/>
		<path class="st2" d="M345.1,93.5v13.7h-3.8V74.3h9c4,0,7,0.8,8.9,2.3c1.9,1.5,2.9,3.9,2.9,7c0,4.3-2.2,7.3-6.6,8.8l8.9,14.8h-4.5
			l-8-13.7H345.1z M345.1,90.2h5.2c2.7,0,4.7-0.5,5.9-1.6c1.3-1.1,1.9-2.7,1.9-4.8c0-2.2-0.6-3.7-1.9-4.7s-3.3-1.4-6.2-1.4h-5V90.2z
			"/>
		<path class="st2" d="M388.3,98.4c0,2.9-1,5.1-3.1,6.8s-4.9,2.4-8.5,2.4c-3.9,0-6.9-0.5-9-1.5v-3.7c1.3,0.6,2.8,1,4.4,1.3
			s3.2,0.5,4.7,0.5c2.5,0,4.5-0.5,5.8-1.4c1.3-1,1.9-2.3,1.9-4c0-1.1-0.2-2.1-0.7-2.8c-0.5-0.7-1.2-1.4-2.3-2
			c-1.1-0.6-2.7-1.3-4.9-2.1c-3.1-1.1-5.2-2.4-6.5-3.9c-1.3-1.5-2-3.5-2-5.9c0-2.5,1-4.5,2.9-6s4.4-2.2,7.5-2.2c3.3,0,6.3,0.6,9,1.8
			l-1.2,3.3c-2.7-1.1-5.3-1.7-7.9-1.7c-2,0-3.6,0.4-4.7,1.3s-1.7,2.1-1.7,3.6c0,1.1,0.2,2.1,0.6,2.8c0.4,0.7,1.1,1.4,2.1,2
			c1,0.6,2.5,1.3,4.6,2c3.4,1.2,5.8,2.5,7.1,4C387.6,94.4,388.3,96.2,388.3,98.4z"/>
	</g>
</g>
<g id="Слой_3">
	<path class="st2" d="M436.5,60.5C390,33,366,29,289.5,28.5C228,3,163-13,46.5,16.5C122,25,163,41.6,205,41c68-1,100-5,161,0
		c70.2,8.9,50.5,56.9,50,58C416.5,98.2,431.1,71.8,436.5,60.5z M106,14c0,0,85-16,158,15C188,39,106,14,106,14z"/>
</g>
</svg>
