<svg xmlns="http://www.w3.org/2000/svg" width="22" height="22" viewBox="0 0 22 22"><g><g><path fill="#f7c935" d="M.627 8.3C.104 6.9-.097 5.743-.01 4.653a3.494 3.494 0 0 1 1.049-2.242L2.753.705C3.243.24 3.802 0 4.384 0c.586 0 1.14.241 1.613.702.312.287.628.606.93.917.156.16.307.314.467.474L8.76 3.45c.5.492.76 1.062.76 1.64 0 .58-.265 1.15-.76 1.642-.142.142-.284.283-.422.424-.39.397-.792.803-1.223 1.19.307.706.747 1.4 1.402 2.225 1.297 1.581 2.653 2.812 4.147 3.756.151.096.32.183.504.273.147.073.302.151.454.238l1.64-1.633c.481-.478 1.045-.734 1.631-.734.587 0 1.146.256 1.613.739l2.754 2.74c.985.98.985 2.265.01 3.278-.211.219-.431.432-.647.638-.316.305-.618.592-.884.911-.005.01-.014.018-.018.023-.747.807-1.664 1.2-2.805 1.2-.105 0-.206-.005-.311-.01-1.7-.11-3.226-.748-4.367-1.285a23.447 23.447 0 0 1-7.804-6.082C2.638 12.476 1.43 10.466.627 8.3zm1.058-.374c.76 2.043 1.91 3.948 3.62 5.995a22.277 22.277 0 0 0 7.428 5.79c1.05.496 2.447 1.08 3.95 1.176.077.004.16.01.238.01.81 0 1.439-.265 1.966-.83.302-.36.637-.68.957-.99.216-.205.417-.4.61-.607.559-.578.563-1.17.013-1.718l-2.763-2.744c-.178-.192-.462-.406-.81-.406-.285 0-.573.141-.84.406l-1.713 1.704c-.078.078-.316.31-.683.31a.962.962 0 0 1-.444-.113l-.05-.028a5.717 5.717 0 0 0-.505-.273c-.197-.1-.407-.2-.604-.328-1.595-1.008-3.043-2.316-4.418-4.003-.765-.957-1.255-1.76-1.608-2.603-.005-.014-.01-.022-.014-.036-.091-.273-.151-.634.23-1.012l.022-.023c.44-.387.839-.793 1.265-1.222.142-.141.284-.287.426-.428.284-.283.43-.57.43-.853 0-.282-.146-.57-.43-.852L6.593 2.89c-.16-.165-.321-.324-.477-.484-.311-.314-.6-.61-.907-.894-.261-.264-.545-.395-.825-.395-.284 0-.577.131-.843.386L1.836 3.2c-.44.438-.673.944-.728 1.55-.074.916.105 1.924.577 3.177z"/></g></g></svg>